<svg width="112" height="77" viewBox="0 0 112 77" fill="none" xmlns="http://www.w3.org/2000/svg">
<path d="M89.6 76.7898C92.6115 72.5156 100.405 63.9518 109.262 60.9129C110.316 60.6416 111.234 60.3899 112 60.1661C111.079 60.3507 110.165 60.6031 109.262 60.9129C102.641 62.6167 90.6354 65.0931 77.1556 66.2577V60.1661C79.6444 60.6146 84.6222 61.9074 84.6222 63.4907C84.6222 65.4699 92.0889 52.6853 87.1111 47.6982L64.7111 40.2175C64.7111 44.6819 63.7156 54.9218 59.7333 60.1661C63.8815 59.612 72.6756 58.8362 74.6667 60.1661V66.4562C72.4807 66.6158 70.263 66.7384 68.0296 66.8156C62.5266 67.0057 55.9883 66.838 49.1397 66.4562V60.9972C50.4586 60.9972 53.5941 61.6621 55.5852 64.3219C58.9037 60.7201 64.2133 51.6879 58.9037 44.3735L31.5259 35.2304C33.1852 38.8322 36.5037 49.028 26.5481 60.9972C33.1852 60.166 44.6341 58.8362 47.2889 60.1661V66.3483C39.5108 65.8758 31.4211 65.1475 24.0593 64.3695V16.9451H26.5481V18.6067L34.0148 18.6075L22.4 13.6204V31.9065L4.14816 26.0882C7.46667 38.0572 2.76543 49.3613 7.62939e-06 53.5173L22.4 61.8291V64.192C14.7211 63.3607 7.9481 62.4911 3.31852 61.8285C6.91358 65.9844 12.7763 74.6287 7.46667 75.9586C2.15704 77.2885 60.0099 77.0669 89.6 76.7898Z" fill="url(#paint0_linear_484_89)"/>
<path d="M110.341 57.6726C107.022 55.6777 98.4494 57.3955 94.5778 58.5038C96.5689 49.1946 92.0889 37.447 89.6 32.7369C92.3654 34.6763 98.7259 39.3863 102.044 42.7111C105.363 46.0358 108.958 54.0707 110.341 57.6726Z" fill="url(#paint1_linear_484_89)"/>
<path d="M87.1111 46.0358C88.4938 43.2652 90.2637 36.5603 86.2815 31.9057L77.1556 28.4226V21.1003H80.4741V22.7626H87.1111L82.1333 20.2691V17.7755H76.3259V28.106L68.8593 25.2562C69.4123 29.1351 69.357 37.3915 64.7111 39.3863C70.7951 39.6634 83.7926 41.3812 87.1111 46.0358Z" fill="url(#paint2_linear_484_89)"/>
<path d="M31.5259 34.3992C36.8356 29.7446 36.5037 21.9315 35.6741 18.6067L58.9037 26.9186C64.877 31.5732 61.3926 39.3863 58.9037 42.7111C54.2578 37.3915 38.716 34.9534 31.5259 34.3992Z" fill="url(#paint3_linear_484_89)"/>
<path d="M38.9926 18.6067C44.8 19.8733 56.9126 22.9764 58.9037 25.2562C60.563 23.3168 62.8859 17.9418 58.9037 11.9572L48.5073 8.48528L48.1185 2.81499H51.437V4.47736H58.0741L46.9045 0V7.95L38.9926 5.30776C40.0988 8.07837 41.1496 14.4508 36.5037 17.7755L38.9926 18.6067Z" fill="url(#paint4_linear_484_89)"/>
<defs>
<linearGradient id="paint0_linear_484_89" x1="5.49999" y1="58" x2="109.5" y2="59" gradientUnits="userSpaceOnUse">
<stop stop-color="#D4A11E"/>
<stop offset="1" stop-color="#00285E"/>
</linearGradient>
<linearGradient id="paint1_linear_484_89" x1="5.49999" y1="58" x2="109.5" y2="59" gradientUnits="userSpaceOnUse">
<stop stop-color="#D4A11E"/>
<stop offset="1" stop-color="#00285E"/>
</linearGradient>
<linearGradient id="paint2_linear_484_89" x1="5.49999" y1="58" x2="109.5" y2="59" gradientUnits="userSpaceOnUse">
<stop stop-color="#D4A11E"/>
<stop offset="1" stop-color="#00285E"/>
</linearGradient>
<linearGradient id="paint3_linear_484_89" x1="5.49999" y1="58" x2="109.5" y2="59" gradientUnits="userSpaceOnUse">
<stop stop-color="#D4A11E"/>
<stop offset="1" stop-color="#00285E"/>
</linearGradient>
<linearGradient id="paint4_linear_484_89" x1="5.49999" y1="58" x2="109.5" y2="59" gradientUnits="userSpaceOnUse">
<stop stop-color="#D4A11E"/>
<stop offset="1" stop-color="#00285E"/>
</linearGradient>
</defs>
</svg>
