<svg width="70" height="113" viewBox="0 0 70 113" fill="none" xmlns="http://www.w3.org/2000/svg">
<path d="M17.2672 112H1V110.66C6.99655 104.345 19.181 90.6803 19.9465 86.5466H19.181L18.2241 79.4655H23.5827C25.3689 74.4259 28.9414 64.0021 28.9414 62.6241H27.6017L27.0276 59.7534H29.7069C31.2379 46.3569 34.032 18.2241 32.9603 12.8655H32.0034V8.27241H34.4914V1H34.8741V62.2414H33.7258L30.281 79.4655H35.0655V93.819H34.6827C19.5638 93.819 17.5862 106.322 17.2672 112Z" fill="url(#paint0_linear_486_93)"/>
<path d="M23.5827 79.4655H18.2241L19.181 86.5466H19.9465C19.181 90.6803 6.99655 104.345 1 110.66V112H17.2672C17.5862 106.322 19.5638 93.819 34.6827 93.819H35.0655V79.4655H30.281M23.5827 79.4655C25.369 74.4259 28.9414 64.0021 28.9414 62.6241H27.6017L27.0276 59.7534H29.7069C31.2379 46.3569 34.032 18.2241 32.9603 12.8655H32.0034V8.27241H34.4914V1H34.8741V62.2414H33.7258L30.281 79.4655M23.5827 79.4655H30.281" stroke="url(#paint1_linear_486_93)"/>
<path d="M52.4808 112H68.748V110.66C62.7515 104.345 50.567 90.6803 49.8015 86.5466H50.567L51.5239 79.4655H46.1653C44.3791 74.4259 40.8067 64.0021 40.8067 62.6241H42.1463L42.7205 59.7534H40.0412C38.5101 46.3569 35.716 18.2241 36.7877 12.8655H37.7446V8.27241H35.2567V1H34.8739V62.2414H36.0222L39.467 79.4655H35.0653V93.819C50.1843 93.819 52.1618 106.322 52.4808 112Z" fill="url(#paint2_linear_486_93)"/>
<path d="M46.1653 79.4655H51.5239L50.567 86.5466H49.8015C50.567 90.6803 62.7515 104.345 68.748 110.66V112H52.4808C52.1618 106.322 50.1843 93.819 35.0653 93.819V79.4655H39.467M46.1653 79.4655C44.3791 74.4259 40.8067 64.0021 40.8067 62.6241H42.1463L42.7205 59.7534H40.0412C38.5101 46.3569 35.716 18.2241 36.7877 12.8655H37.7446V8.27241H35.2567V1H34.8739V62.2414H36.0222L39.467 79.4655M46.1653 79.4655H39.467" stroke="url(#paint3_linear_486_93)"/>
<defs>
<linearGradient id="paint0_linear_486_93" x1="18.0327" y1="1" x2="18.0327" y2="112" gradientUnits="userSpaceOnUse">
<stop stop-color="#EA4324"/>
<stop offset="1" stop-color="#144178"/>
</linearGradient>
<linearGradient id="paint1_linear_486_93" x1="18.0327" y1="1" x2="18.0327" y2="112" gradientUnits="userSpaceOnUse">
<stop stop-color="#EA4324"/>
<stop offset="1" stop-color="#144178"/>
</linearGradient>
<linearGradient id="paint2_linear_486_93" x1="51.811" y1="1" x2="51.811" y2="112" gradientUnits="userSpaceOnUse">
<stop stop-color="#EA4324"/>
<stop offset="1" stop-color="#144178"/>
</linearGradient>
<linearGradient id="paint3_linear_486_93" x1="51.811" y1="1" x2="51.811" y2="112" gradientUnits="userSpaceOnUse">
<stop stop-color="#EA4324"/>
<stop offset="1" stop-color="#144178"/>
</linearGradient>
</defs>
</svg>
